<svg xmlns="http://www.w3.org/2000/svg" viewBox="0 0 59.02 113.3"><defs><style>.cls-1{fill:#fff;}</style></defs><title>Asset 1</title><g id="Layer_2" data-name="Layer 2"><g id="facebook"><path class="cls-1" d="M15.42,111.7V66a1.6,1.6,0,0,0-1.6-1.6H3.23c-.43.06-3.23.29-3.23-3.5v-15a3.29,3.29,0,0,1,3.49-3.29H13.82a1.6,1.6,0,0,0,1.6-1.6V25.32S15.62,0,40.9,0c8.43-.09,13.57,0,13.57,0S58,0,58,3.54V15s.15,4.11-3.75,4.11H45.84s-9,0-9,7.81V40.79a1.6,1.6,0,0,0,1.6,1.6h16.9s4.11-.21,3.7,3.08-1.85,15.62-1.85,15.62-.21,3.08-4.32,3.08h-14a1.6,1.6,0,0,0-1.6,1.6V111.7a1.6,1.6,0,0,1-1.6,1.6H17A1.6,1.6,0,0,1,15.42,111.7Z"/></g></g></svg>