<svg xmlns="http://www.w3.org/2000/svg" viewBox="0 0 113.26 113.26"><defs><style>.cls-1{fill:#fff;}</style></defs><title>Asset 3</title><g id="Layer_2" data-name="Layer 2"><g id="instagram"><path class="cls-1" d="M56.63,27.29A29.34,29.34,0,1,0,86,56.63,29.34,29.34,0,0,0,56.63,27.29Zm0,48.27A18.93,18.93,0,1,1,75.56,56.63,18.93,18.93,0,0,1,56.63,75.56ZM94.25,26a7,7,0,1,1-7-7A7,7,0,0,1,94.25,26ZM83.7,0H29.56A29.59,29.59,0,0,0,0,29.56V83.7a29.59,29.59,0,0,0,29.56,29.56H83.7A29.59,29.59,0,0,0,113.26,83.7V29.56A29.59,29.59,0,0,0,83.7,0Zm20.39,83.7A20.41,20.41,0,0,1,83.7,104.09H29.56A20.41,20.41,0,0,1,9.17,83.7V29.56A20.41,20.41,0,0,1,29.56,9.17H83.7a20.41,20.41,0,0,1,20.39,20.39Z"/></g></g></svg>