<svg xmlns="http://www.w3.org/2000/svg" viewBox="0 0 138.59 113.26"><defs><style>.cls-1{fill:#fff;}</style></defs><title>Asset 2</title><g id="Layer_2" data-name="Layer 2"><g id="twitter"><path class="cls-1" d="M68.26,35.16S63.19,14.07,82.14,3.53,116.7,9.4,116.7,9.4a60.31,60.31,0,0,0,17.75-6.67S133.38,11.08,123,17.58c0,0,4.4.9,15.61-3.64,0,0-2.54,7.07-13.61,14,0,0,2,46.41-36.28,72.58s-85.43,4.62-88.7,0c0,0,24.44,3.46,41.56-11.93,0,0-20.39-1.15-26-19.43a23.12,23.12,0,0,0,12.12-.58s-21.93-6-21.93-28.28c0,0,3.85,2.89,11.93,3.27,0,0-20.59-15.78-8.47-37.71C9.24,5.87,31.09,33.85,68.26,35.16Z"/></g></g></svg>